<svg width="50" height="51" viewBox="0 0 50 51" fill="none" xmlns="http://www.w3.org/2000/svg">
<path fill-rule="evenodd" clip-rule="evenodd" d="M25 50.5155C38.8071 50.5155 50 39.2072 50 25.2577C50 11.3083 38.8071 0 25 0C11.1929 0 0 11.3083 0 25.2577C0 39.2072 11.1929 50.5155 25 50.5155Z" fill="#E3FCFF"/>
<path d="M30.53 20.984C30.46 20.9739 30.39 20.9739 30.32 20.984C28.77 20.9335 27.54 19.6504 27.54 18.0743C27.54 16.4679 28.83 15.1545 30.43 15.1545C32.02 15.1545 33.32 16.4578 33.32 18.0743C33.31 19.6504 32.08 20.9335 30.53 20.984Z" fill="black"/>
<path d="M33.7901 27.9856C32.6701 28.7433 31.1001 29.0262 29.6501 28.8343C30.0301 28.0058 30.2301 27.0864 30.2401 26.1165C30.2401 25.1062 30.0201 24.1464 29.6001 23.3079C31.0801 23.1058 32.6501 23.3887 33.7801 24.1464C35.3601 25.1971 35.3601 26.9248 33.7901 27.9856Z" fill="black"/>
<path d="M19.4399 20.984C19.5099 20.9739 19.5799 20.9739 19.6499 20.984C21.1999 20.9335 22.4299 19.6504 22.4299 18.0743C22.4299 16.4578 21.1399 15.1545 19.5399 15.1545C17.9499 15.1545 16.6599 16.4578 16.6599 18.0743C16.6599 19.6504 17.8899 20.9335 19.4399 20.984Z" fill="black"/>
<path d="M19.5501 26.1165C19.5501 27.0965 19.7601 28.026 20.1401 28.8645C18.7301 29.0161 17.2601 28.713 16.1801 27.9956C14.6001 26.9348 14.6001 25.2072 16.1801 24.1464C17.2501 23.4189 18.7601 23.126 20.1801 23.2876C19.7701 24.1363 19.5501 25.0961 19.5501 26.1165Z" fill="black"/>
<path d="M25.12 29.1676C25.04 29.1575 24.95 29.1575 24.86 29.1676C23.02 29.107 21.55 27.5814 21.55 25.7023C21.56 23.7827 23.09 22.2268 25 22.2268C26.9 22.2268 28.44 23.7827 28.44 25.7023C28.43 27.5814 26.97 29.107 25.12 29.1676Z" fill="black"/>
<path d="M21.87 31.2591C20.36 32.2795 20.36 33.9566 21.87 34.9669C23.59 36.1288 26.41 36.1288 28.1301 34.9669C29.64 33.9465 29.64 32.2694 28.1301 31.2591C26.42 30.0972 23.6 30.0972 21.87 31.2591Z" fill="black"/>
</svg>
