<svg width="50" height="51" viewBox="0 0 50 51" fill="none" xmlns="http://www.w3.org/2000/svg">
<path fill-rule="evenodd" clip-rule="evenodd" d="M25 50.5155C38.8071 50.5155 50 39.2072 50 25.2577C50 11.3083 38.8071 0 25 0C11.1929 0 0 11.3083 0 25.2577C0 39.2072 11.1929 50.5155 25 50.5155Z" fill="#E3FCFF"/>
<path d="M33.98 23.9443C33.76 20.0041 30.87 16.7205 27.01 16.0537C26.95 15.2758 26.31 14.6494 25.52 14.6494H24.52C23.73 14.6494 23.1 15.2657 23.03 16.0436C19.15 16.6902 16.24 19.9838 16.02 23.9443C15.31 24.0655 14.77 24.6818 14.77 25.4294V26.4397C14.77 27.2783 15.44 27.9552 16.27 27.9552H17.27C18.1 27.9552 18.77 27.2783 18.77 26.4397V25.4294C18.77 24.6818 18.23 24.0655 17.52 23.9443C17.73 20.7921 20.02 18.1754 23.08 17.5692C23.25 18.2158 23.83 18.6907 24.52 18.6907H25.52C26.21 18.6907 26.78 18.2158 26.96 17.5793C30 18.1956 32.27 20.8123 32.48 23.9443C31.77 24.0655 31.23 24.6818 31.23 25.4294V26.4397C31.23 27.2783 31.9 27.9552 32.73 27.9552H33.73C34.56 27.9552 35.23 27.2783 35.23 26.4397V25.4294C35.23 24.6818 34.69 24.0554 33.98 23.9443Z" fill="black"/>
<path d="M28.7701 29.8547L27.1301 31.3196H22.8801L21.2401 29.8547C20.2901 29.0666 20.2901 28.4604 21.0101 27.5309L23.9001 23.8332C24.1001 23.5806 24.3301 23.4089 24.5901 23.318C24.8601 23.227 25.1501 23.227 25.4301 23.318C25.6801 23.4089 25.9101 23.5806 26.1201 23.8332L29.0001 27.5208C29.7301 28.4503 29.6901 29.0262 28.7701 29.8547Z" fill="black"/>
<path d="M26.3202 35.3609H23.7302C22.8102 35.3609 22.1202 34.6032 22.3002 33.7949L22.6102 32.3906C22.6702 32.1077 22.9202 31.9158 23.2002 31.9158H26.8502C27.1302 31.9158 27.3702 32.1077 27.4402 32.3906L27.7502 33.7949C27.9402 34.6537 27.3002 35.3609 26.3202 35.3609Z" fill="black"/>
</svg>
