<svg width="40" height="40" viewBox="0 0 40 40" fill="none" xmlns="http://www.w3.org/2000/svg">
<path d="M36.251 9.93361C35.0557 10.4492 33.7549 10.8203 32.415 10.9649C33.8061 10.1384 34.8478 8.83283 35.3447 7.29298C34.0394 8.0695 32.6094 8.61401 31.1182 8.90236C30.4949 8.23606 29.7411 7.70525 28.9037 7.34301C28.0663 6.98078 27.1633 6.79488 26.251 6.79689C22.5596 6.79689 19.5908 9.78908 19.5908 13.461C19.5908 13.9766 19.6533 14.4922 19.7549 14.9883C14.2275 14.6992 9.29785 12.0586 6.02051 8.01564C5.42334 9.03562 5.1104 10.197 5.11426 11.3789C5.11426 13.6914 6.29004 15.7305 8.08301 16.9297C7.02638 16.8881 5.9945 16.5977 5.07129 16.082V16.1641C5.07129 19.4024 7.36035 22.086 10.4111 22.7031C9.83832 22.8519 9.24905 22.928 8.65723 22.9297C8.22363 22.9297 7.81348 22.8867 7.39941 22.8281C8.24316 25.4688 10.7002 27.3867 13.626 27.4492C11.3369 29.2422 8.46973 30.2969 5.35645 30.2969C4.79785 30.2969 4.28223 30.2774 3.74707 30.2149C6.7002 32.1094 10.2041 33.2031 13.9775 33.2031C26.2275 33.2031 32.9307 23.0547 32.9307 14.2461C32.9307 13.957 32.9307 13.668 32.9111 13.3789C34.208 12.4297 35.3447 11.2539 36.251 9.93361Z" fill="white"/>
</svg>
