<svg width="40" height="40" viewBox="0 0 40 40" fill="none" xmlns="http://www.w3.org/2000/svg">
<path d="M34.376 4.375H5.62598C4.93457 4.375 4.37598 4.93359 4.37598 5.625V34.375C4.37598 35.0664 4.93457 35.625 5.62598 35.625H34.376C35.0674 35.625 35.626 35.0664 35.626 34.375V5.625C35.626 4.93359 35.0674 4.375 34.376 4.375ZM30.7666 13.4961H28.2705C26.3135 13.4961 25.9346 14.4258 25.9346 15.793V18.8047H30.6064L29.9971 23.5195H25.9346V35.625H21.0635V23.5234H16.9893V18.8047H21.0635V15.3281C21.0635 11.293 23.5283 9.09375 27.1299 9.09375C28.8564 9.09375 30.3369 9.22266 30.7705 9.28125V13.4961H30.7666Z" fill="white"/>
</svg>
