<svg width="88" height="88" viewBox="0 0 88 88" fill="none" xmlns="http://www.w3.org/2000/svg">
<g filter="url(#filter0_d_1323_3635)">
<path d="M43.9998 6.66634C62.4093 6.66634 77.3332 21.5902 77.3332 39.9997C77.3332 58.4092 62.4093 73.333 43.9998 73.333C25.5903 73.333 10.6665 58.4092 10.6665 39.9997C10.6665 21.5902 25.5903 6.66634 43.9998 6.66634Z" fill="white"/>
</g>
<path d="M55.7667 33.3003C55.1334 33.3003 54.5 33.5336 54 34.0336L44 44.0336L34 34.0336C33.0334 33.0669 31.4334 33.0669 30.4667 34.0336C29.5 35.0003 29.5 36.6003 30.4667 37.5669L42.2334 49.3336C43.2 50.3003 44.8 50.3003 45.7667 49.3336L57.5334 37.5669C58.5 36.6003 58.5 35.0003 57.5334 34.0336C57.0334 33.5336 56.4 33.3003 55.7667 33.3003Z" fill="black"/>
<defs>
<filter id="filter0_d_1323_3635" x="0.666504" y="0.666016" width="86.6665" height="86.667" filterUnits="userSpaceOnUse" color-interpolation-filters="sRGB">
<feFlood flood-opacity="0" result="BackgroundImageFix"/>
<feColorMatrix in="SourceAlpha" type="matrix" values="0 0 0 0 0 0 0 0 0 0 0 0 0 0 0 0 0 0 127 0" result="hardAlpha"/>
<feOffset dy="4"/>
<feGaussianBlur stdDeviation="5"/>
<feComposite in2="hardAlpha" operator="out"/>
<feColorMatrix type="matrix" values="0 0 0 0 0 0 0 0 0 0 0 0 0 0 0 0 0 0 0.3 0"/>
<feBlend mode="normal" in2="BackgroundImageFix" result="effect1_dropShadow_1323_3635"/>
<feBlend mode="normal" in="SourceGraphic" in2="effect1_dropShadow_1323_3635" result="shape"/>
</filter>
</defs>
</svg>
