<svg width="40" height="40" viewBox="0 0 40 40" fill="none" xmlns="http://www.w3.org/2000/svg">
<path d="M35 12.9166H5C4.31667 12.9166 3.75 12.35 3.75 11.6666C3.75 10.9833 4.31667 10.4166 5 10.4166H35C35.6833 10.4166 36.25 10.9833 36.25 11.6666C36.25 12.35 35.6833 12.9166 35 12.9166Z" fill="white"/>
<path d="M35 21.25H5C4.31667 21.25 3.75 20.6833 3.75 20C3.75 19.3167 4.31667 18.75 5 18.75H35C35.6833 18.75 36.25 19.3167 36.25 20C36.25 20.6833 35.6833 21.25 35 21.25Z" fill="white"/>
<path d="M35 29.5834H5C4.31667 29.5834 3.75 29.0167 3.75 28.3334C3.75 27.65 4.31667 27.0834 5 27.0834H35C35.6833 27.0834 36.25 27.65 36.25 28.3334C36.25 29.0167 35.6833 29.5834 35 29.5834Z" fill="white"/>
</svg>
